# xmcd
#
# Track frame offsets:
#	150
#	17196
#	36241
#	52300
#	65738
#	81613
#	101614
#	113096
#	129876
#	145244
#	162757
#	179267
#	196059
#
# Disc length: 2861 seconds
#
# Revision: 0
# Processed by: cddbd v1.5.2PL0 Copyright (c) Steve Scherf et al.
# Submitted via: EasyCDDAExtractor 8.2.1.1
#
DISCID=b80b2b0d
DTITLE=The  Blackhill Ramblers
DYEAR=1900
DGENRE=Country
TTITLE0=One More Last Chance
TTITLE1=Honey I Do
TTITLE2=Hole In My Pocket
TTITLE3=Luther
TTITLE4=Little Old Wine Drinker Me
TTITLE5=Dead Flowers
TTITLE6=Gone Gone Gone
TTITLE7=Lights Comin' Over The Hill
TTITLE8=Never Give Up
TTITLE9=You're Cheatin' Heart
TTITLE10=Bikinis
TTITLE11=Bitumen Bandit
TTITLE12=The Nips Are Getting bigger
EXTD=
EXTT0=
EXTT1=
EXTT2=
EXTT3=
EXTT4=
EXTT5=
EXTT6=
EXTT7=
EXTT8=
EXTT9=
EXTT10=
EXTT11=
EXTT12=
PLAYORDER=
